<mxfile host="app.diagrams.net" agent="Mozilla/5.0 (Windows NT 10.0; Win64; x64) AppleWebKit/537.36 (KHTML, like Gecko) Chrome/128.0.0.0 Safari/537.36 OPR/114.0.0.0" version="25.0.1">
  <diagram name="Page-1" id="g26OKvRavhr8cWzZ3qx9">
    <mxGraphModel grid="1" page="1" gridSize="10" guides="1" tooltips="1" connect="1" arrows="1" fold="1" pageScale="1" pageWidth="850" pageHeight="1100" math="0" shadow="0">
      <root>
        <mxCell id="0" />
        <mxCell id="1" parent="0" />
        <mxCell id="-FXv5omy3MzeQEBANu6x-1" value="User" style="swimlane;childLayout=stackLayout;horizontal=1;startSize=50;horizontalStack=0;rounded=1;fontSize=14;fontStyle=0;strokeWidth=2;resizeParent=0;resizeLast=1;shadow=0;dashed=0;align=center;arcSize=4;whiteSpace=wrap;html=1;" vertex="1" parent="1">
          <mxGeometry x="360" y="181" width="160" height="120" as="geometry">
            <mxRectangle x="360" y="180" width="70" height="50" as="alternateBounds" />
          </mxGeometry>
        </mxCell>
        <mxCell id="-FXv5omy3MzeQEBANu6x-2" value="&lt;b&gt;+&amp;nbsp;&lt;/b&gt;&lt;b&gt;&lt;u&gt;PK id&lt;/u&gt;&lt;/b&gt;&lt;div&gt;+ name&lt;/div&gt;&lt;div&gt;+ password&lt;/div&gt;&lt;div&gt;+ email&lt;/div&gt;" style="align=left;strokeColor=none;fillColor=none;spacingLeft=4;fontSize=12;verticalAlign=top;resizable=0;rotatable=0;part=1;html=1;" vertex="1" parent="-FXv5omy3MzeQEBANu6x-1">
          <mxGeometry y="50" width="160" height="70" as="geometry" />
        </mxCell>
        <mxCell id="-FXv5omy3MzeQEBANu6x-3" value="Category" style="swimlane;childLayout=stackLayout;horizontal=1;startSize=50;horizontalStack=0;rounded=1;fontSize=14;fontStyle=0;strokeWidth=2;resizeParent=0;resizeLast=1;shadow=0;dashed=0;align=center;arcSize=4;whiteSpace=wrap;html=1;" vertex="1" parent="1">
          <mxGeometry x="910" y="380" width="160" height="120" as="geometry" />
        </mxCell>
        <mxCell id="-FXv5omy3MzeQEBANu6x-4" value="&lt;span style=&quot;background-color: initial;&quot;&gt;&lt;b&gt;+&amp;nbsp;&lt;/b&gt;&lt;/span&gt;&lt;b&gt;&lt;u&gt;PK id&lt;/u&gt;&lt;/b&gt;&lt;div&gt;+ description&lt;br&gt;&lt;span style=&quot;background-color: initial;&quot;&gt;+ UQ genre&lt;/span&gt;&lt;/div&gt;" style="align=left;strokeColor=none;fillColor=none;spacingLeft=4;fontSize=12;verticalAlign=top;resizable=0;rotatable=0;part=1;html=1;" vertex="1" parent="-FXv5omy3MzeQEBANu6x-3">
          <mxGeometry y="50" width="160" height="70" as="geometry" />
        </mxCell>
        <mxCell id="-FXv5omy3MzeQEBANu6x-5" value="&lt;span style=&quot;font-size: 12px;&quot;&gt;Product&lt;/span&gt;" style="swimlane;childLayout=stackLayout;horizontal=1;startSize=50;horizontalStack=0;rounded=1;fontSize=14;fontStyle=0;strokeWidth=2;resizeParent=0;resizeLast=1;shadow=0;dashed=0;align=center;arcSize=4;whiteSpace=wrap;html=1;" vertex="1" parent="1">
          <mxGeometry x="600" y="340" width="160" height="120" as="geometry" />
        </mxCell>
        <mxCell id="-FXv5omy3MzeQEBANu6x-6" value="&lt;span style=&quot;background-color: initial;&quot;&gt;&lt;b&gt;+&amp;nbsp;&lt;/b&gt;&lt;/span&gt;&lt;b&gt;&lt;u&gt;PK id&lt;/u&gt;&lt;/b&gt;&lt;br&gt;&lt;span style=&quot;background-color: initial;&quot;&gt;+ name&lt;/span&gt;&lt;br&gt;&lt;span style=&quot;background-color: initial;&quot;&gt;+ FK category_id&lt;/span&gt;&lt;br&gt;&lt;span style=&quot;background-color: initial;&quot;&gt;+ FK review_id&lt;/span&gt;" style="align=left;strokeColor=none;fillColor=none;spacingLeft=4;fontSize=12;verticalAlign=top;resizable=0;rotatable=0;part=1;html=1;" vertex="1" parent="-FXv5omy3MzeQEBANu6x-5">
          <mxGeometry y="50" width="160" height="70" as="geometry" />
        </mxCell>
        <mxCell id="-FXv5omy3MzeQEBANu6x-7" value="&lt;span style=&quot;font-size: 12px;&quot;&gt;Review&lt;/span&gt;" style="swimlane;childLayout=stackLayout;horizontal=1;startSize=50;horizontalStack=0;rounded=1;fontSize=14;fontStyle=0;strokeWidth=2;resizeParent=0;resizeLast=1;shadow=0;dashed=0;align=center;arcSize=4;whiteSpace=wrap;html=1;" vertex="1" parent="1">
          <mxGeometry x="370" y="340" width="160" height="120" as="geometry" />
        </mxCell>
        <mxCell id="-FXv5omy3MzeQEBANu6x-8" value="&lt;span style=&quot;background-color: initial;&quot;&gt;&lt;b&gt;+&amp;nbsp;&lt;/b&gt;&lt;/span&gt;&lt;b&gt;&lt;u&gt;PK id&lt;/u&gt;&lt;/b&gt;&lt;br&gt;&lt;span style=&quot;background-color: initial;&quot;&gt;+ comment&lt;/span&gt;&lt;br&gt;&lt;span style=&quot;background-color: initial;&quot;&gt;+ rating&lt;/span&gt;&lt;br&gt;&lt;span style=&quot;background-color: initial;&quot;&gt;+ FK user_id&lt;/span&gt;" style="align=left;strokeColor=none;fillColor=none;spacingLeft=4;fontSize=12;verticalAlign=top;resizable=0;rotatable=0;part=1;html=1;" vertex="1" parent="-FXv5omy3MzeQEBANu6x-7">
          <mxGeometry y="50" width="160" height="70" as="geometry" />
        </mxCell>
        <mxCell id="-FXv5omy3MzeQEBANu6x-9" value="&lt;span style=&quot;font-size: 12px;&quot;&gt;Payment info&lt;/span&gt;" style="swimlane;childLayout=stackLayout;horizontal=1;startSize=50;horizontalStack=0;rounded=1;fontSize=14;fontStyle=0;strokeWidth=2;resizeParent=0;resizeLast=1;shadow=0;dashed=0;align=center;arcSize=4;whiteSpace=wrap;html=1;" vertex="1" parent="1">
          <mxGeometry x="-130" y="180" width="160" height="140" as="geometry" />
        </mxCell>
        <mxCell id="-FXv5omy3MzeQEBANu6x-10" value="&lt;span style=&quot;background-color: initial;&quot;&gt;&lt;b&gt;+&amp;nbsp;&lt;/b&gt;&lt;/span&gt;&lt;b&gt;&lt;u&gt;PK id&lt;/u&gt;&lt;/b&gt;&lt;br&gt;&lt;span style=&quot;background-color: initial;&quot;&gt;+ card_number&lt;/span&gt;&lt;br&gt;&lt;span style=&quot;background-color: initial;&quot;&gt;+ valid_date&lt;/span&gt;&lt;br&gt;&lt;span style=&quot;background-color: initial;&quot;&gt;+ security_number&lt;/span&gt;&lt;br&gt;&lt;span style=&quot;background-color: initial;&quot;&gt;+ FK,UQ user_id&lt;/span&gt;" style="align=left;strokeColor=none;fillColor=none;spacingLeft=4;fontSize=12;verticalAlign=top;resizable=0;rotatable=0;part=1;html=1;" vertex="1" parent="-FXv5omy3MzeQEBANu6x-9">
          <mxGeometry y="50" width="160" height="90" as="geometry" />
        </mxCell>
        <mxCell id="-FXv5omy3MzeQEBANu6x-11" value="&lt;span style=&quot;font-size: 12px;&quot;&gt;R&lt;/span&gt;&lt;span style=&quot;font-size: 12px; background-color: initial;&quot;&gt;ecommendation&lt;/span&gt;" style="swimlane;childLayout=stackLayout;horizontal=1;startSize=50;horizontalStack=0;rounded=1;fontSize=14;fontStyle=0;strokeWidth=2;resizeParent=0;resizeLast=1;shadow=0;dashed=0;align=center;arcSize=4;whiteSpace=wrap;html=1;" vertex="1" parent="1">
          <mxGeometry x="110" y="181" width="160" height="120" as="geometry" />
        </mxCell>
        <mxCell id="-FXv5omy3MzeQEBANu6x-12" value="&lt;span style=&quot;background-color: initial;&quot;&gt;&lt;b&gt;+&amp;nbsp;&lt;/b&gt;&lt;/span&gt;&lt;b&gt;&lt;u&gt;PK id&lt;/u&gt;&lt;/b&gt;&lt;br&gt;&lt;span style=&quot;background-color: initial;&quot;&gt;+ FK,UQ user_id&lt;/span&gt;&lt;br&gt;&lt;span style=&quot;background-color: initial;&quot;&gt;+ {recommend_product}&lt;/span&gt;" style="align=left;strokeColor=none;fillColor=none;spacingLeft=4;fontSize=12;verticalAlign=top;resizable=0;rotatable=0;part=1;html=1;" vertex="1" parent="-FXv5omy3MzeQEBANu6x-11">
          <mxGeometry y="50" width="160" height="70" as="geometry" />
        </mxCell>
        <mxCell id="-FXv5omy3MzeQEBANu6x-13" value="&lt;span style=&quot;font-size: 12px;&quot;&gt;Purchase&lt;/span&gt;" style="swimlane;childLayout=stackLayout;horizontal=1;startSize=50;horizontalStack=0;rounded=1;fontSize=14;fontStyle=0;strokeWidth=2;resizeParent=0;resizeLast=1;shadow=0;dashed=0;align=center;arcSize=4;whiteSpace=wrap;html=1;" vertex="1" parent="1">
          <mxGeometry x="120" y="-10" width="160" height="120" as="geometry" />
        </mxCell>
        <mxCell id="-FXv5omy3MzeQEBANu6x-14" value="&lt;span style=&quot;background-color: initial;&quot;&gt;&lt;b&gt;+&amp;nbsp;&lt;/b&gt;&lt;/span&gt;&lt;b&gt;&lt;u&gt;PK id&lt;/u&gt;&lt;/b&gt;&lt;br&gt;&lt;span style=&quot;background-color: initial;&quot;&gt;+ cost&lt;/span&gt;&lt;br&gt;&lt;span style=&quot;background-color: initial;&quot;&gt;+ FK order_id&lt;/span&gt;&lt;br&gt;&lt;span style=&quot;background-color: initial;&quot;&gt;+ FK payment_id&lt;/span&gt;" style="align=left;strokeColor=none;fillColor=none;spacingLeft=4;fontSize=12;verticalAlign=top;resizable=0;rotatable=0;part=1;html=1;" vertex="1" parent="-FXv5omy3MzeQEBANu6x-13">
          <mxGeometry y="50" width="160" height="70" as="geometry" />
        </mxCell>
        <mxCell id="-FXv5omy3MzeQEBANu6x-15" value="&lt;span style=&quot;font-size: 12px;&quot;&gt;Transaction History&lt;/span&gt;" style="swimlane;childLayout=stackLayout;horizontal=1;startSize=50;horizontalStack=0;rounded=1;fontSize=14;fontStyle=0;strokeWidth=2;resizeParent=0;resizeLast=1;shadow=0;dashed=0;align=center;arcSize=4;whiteSpace=wrap;html=1;" vertex="1" parent="1">
          <mxGeometry x="360" y="-10" width="160" height="120" as="geometry" />
        </mxCell>
        <mxCell id="-FXv5omy3MzeQEBANu6x-16" value="&lt;span style=&quot;background-color: initial;&quot;&gt;&lt;b&gt;+ &lt;u&gt;PK id&lt;/u&gt;&lt;/b&gt;&lt;/span&gt;&lt;br&gt;&lt;span style=&quot;background-color: initial;&quot;&gt;+ FK,UQ purchase_id&lt;/span&gt;&lt;br&gt;&lt;span style=&quot;background-color: initial;&quot;&gt;+ order_date&lt;/span&gt;&lt;br&gt;&lt;span style=&quot;background-color: initial;&quot;&gt;+ FK user_id&lt;/span&gt;" style="align=left;strokeColor=none;fillColor=none;spacingLeft=4;fontSize=12;verticalAlign=top;resizable=0;rotatable=0;part=1;html=1;" vertex="1" parent="-FXv5omy3MzeQEBANu6x-15">
          <mxGeometry y="50" width="160" height="70" as="geometry" />
        </mxCell>
        <mxCell id="-FXv5omy3MzeQEBANu6x-17" value="Order" style="swimlane;childLayout=stackLayout;horizontal=1;startSize=50;horizontalStack=0;rounded=1;fontSize=14;fontStyle=0;strokeWidth=2;resizeParent=0;resizeLast=1;shadow=0;dashed=0;align=center;arcSize=4;whiteSpace=wrap;html=1;" vertex="1" parent="1">
          <mxGeometry x="830" y="70" width="160" height="120" as="geometry" />
        </mxCell>
        <mxCell id="-FXv5omy3MzeQEBANu6x-18" value="&lt;span style=&quot;background-color: initial;&quot;&gt;&lt;b&gt;+&amp;nbsp;&lt;/b&gt;&lt;/span&gt;&lt;b&gt;&lt;u&gt;PK id&lt;/u&gt;&lt;/b&gt;&lt;br&gt;&lt;span style=&quot;background-color: initial;&quot;&gt;+ FK product_id&lt;/span&gt;&lt;br&gt;&lt;span style=&quot;background-color: initial;&quot;&gt;+ shipping_date&lt;/span&gt;" style="align=left;strokeColor=none;fillColor=none;spacingLeft=4;fontSize=12;verticalAlign=top;resizable=0;rotatable=0;part=1;html=1;" vertex="1" parent="-FXv5omy3MzeQEBANu6x-17">
          <mxGeometry y="50" width="160" height="70" as="geometry" />
        </mxCell>
        <mxCell id="-FXv5omy3MzeQEBANu6x-19" value="Cart" style="swimlane;childLayout=stackLayout;horizontal=1;startSize=50;horizontalStack=0;rounded=1;fontSize=14;fontStyle=0;strokeWidth=2;resizeParent=0;resizeLast=1;shadow=0;dashed=0;align=center;arcSize=4;whiteSpace=wrap;html=1;" vertex="1" parent="1">
          <mxGeometry x="600" y="180" width="160" height="120" as="geometry" />
        </mxCell>
        <mxCell id="-FXv5omy3MzeQEBANu6x-20" value="&lt;span style=&quot;background-color: initial;&quot;&gt;&lt;b&gt;+&amp;nbsp;&lt;/b&gt;&lt;/span&gt;&lt;b&gt;&lt;u&gt;PK id&lt;/u&gt;&lt;/b&gt;&lt;br&gt;&lt;span style=&quot;background-color: initial;&quot;&gt;+ {product_list}&lt;/span&gt;&lt;br&gt;&lt;span style=&quot;background-color: initial;&quot;&gt;+ FK,UQ user_id&lt;/span&gt;" style="align=left;strokeColor=none;fillColor=none;spacingLeft=4;fontSize=12;verticalAlign=top;resizable=0;rotatable=0;part=1;html=1;" vertex="1" parent="-FXv5omy3MzeQEBANu6x-19">
          <mxGeometry y="50" width="160" height="70" as="geometry" />
        </mxCell>
        <mxCell id="-FXv5omy3MzeQEBANu6x-21" value="" style="endArrow=ERmandOne;html=1;rounded=0;exitX=1;exitY=0.25;exitDx=0;exitDy=0;edgeStyle=orthogonalEdgeStyle;startArrow=ERone;startFill=0;endFill=0;" edge="1" parent="1" source="-FXv5omy3MzeQEBANu6x-2">
          <mxGeometry relative="1" as="geometry">
            <mxPoint x="540" y="310" as="sourcePoint" />
            <mxPoint x="600" y="270" as="targetPoint" />
          </mxGeometry>
        </mxCell>
        <mxCell id="-FXv5omy3MzeQEBANu6x-22" value="" style="endArrow=ERzeroToMany;html=1;rounded=0;edgeStyle=orthogonalEdgeStyle;entryX=0;entryY=0.75;entryDx=0;entryDy=0;startArrow=ERone;startFill=0;endFill=0;" edge="1" parent="1" target="-FXv5omy3MzeQEBANu6x-8">
          <mxGeometry relative="1" as="geometry">
            <mxPoint x="410" y="300" as="sourcePoint" />
            <mxPoint x="351" y="455" as="targetPoint" />
            <Array as="points">
              <mxPoint x="410" y="329" />
              <mxPoint x="270" y="329" />
              <mxPoint x="270" y="440" />
              <mxPoint x="351" y="440" />
              <mxPoint x="351" y="443" />
            </Array>
          </mxGeometry>
        </mxCell>
        <mxCell id="-FXv5omy3MzeQEBANu6x-23" value="" style="endArrow=ERone;html=1;rounded=0;entryX=0;entryY=0.25;entryDx=0;entryDy=0;edgeStyle=orthogonalEdgeStyle;startArrow=ERmandOne;startFill=0;endFill=0;" edge="1" parent="1" source="-FXv5omy3MzeQEBANu6x-12" target="-FXv5omy3MzeQEBANu6x-2">
          <mxGeometry relative="1" as="geometry">
            <mxPoint x="250" y="330" as="sourcePoint" />
            <mxPoint x="410" y="330" as="targetPoint" />
          </mxGeometry>
        </mxCell>
        <mxCell id="-FXv5omy3MzeQEBANu6x-24" value="" style="endArrow=ERmany;html=1;rounded=0;exitX=0;exitY=0.5;exitDx=0;exitDy=0;edgeStyle=orthogonalEdgeStyle;startArrow=ERmany;startFill=0;endFill=0;" edge="1" parent="1" source="-FXv5omy3MzeQEBANu6x-3">
          <mxGeometry relative="1" as="geometry">
            <mxPoint x="790" y="530" as="sourcePoint" />
            <mxPoint x="760" y="440" as="targetPoint" />
            <Array as="points">
              <mxPoint x="890" y="440" />
            </Array>
          </mxGeometry>
        </mxCell>
        <mxCell id="-FXv5omy3MzeQEBANu6x-25" value="" style="endArrow=ERone;html=1;rounded=0;exitX=0.99;exitY=0.123;exitDx=0;exitDy=0;exitPerimeter=0;edgeStyle=orthogonalEdgeStyle;startArrow=ERzeroToMany;startFill=0;endFill=0;" edge="1" parent="1" source="-FXv5omy3MzeQEBANu6x-6" target="-FXv5omy3MzeQEBANu6x-20">
          <mxGeometry relative="1" as="geometry">
            <mxPoint x="779.9999999999999" y="394.79000000000013" as="sourcePoint" />
            <mxPoint x="786.4" y="269.99999999999994" as="targetPoint" />
            <Array as="points">
              <mxPoint x="780" y="399" />
              <mxPoint x="780" y="260" />
            </Array>
          </mxGeometry>
        </mxCell>
        <mxCell id="-FXv5omy3MzeQEBANu6x-26" value="" style="endArrow=ERzeroToMany;html=1;rounded=0;exitX=0.645;exitY=0.04;exitDx=0;exitDy=0;exitPerimeter=0;edgeStyle=orthogonalEdgeStyle;entryX=1;entryY=0.75;entryDx=0;entryDy=0;endFill=0;startArrow=ERone;startFill=0;" edge="1" parent="1" target="-FXv5omy3MzeQEBANu6x-16">
          <mxGeometry relative="1" as="geometry">
            <mxPoint x="489.99999999999983" y="179.99999999999994" as="sourcePoint" />
            <mxPoint x="546.8" y="94.2" as="targetPoint" />
            <Array as="points">
              <mxPoint x="490" y="134" />
              <mxPoint x="548" y="134" />
              <mxPoint x="548" y="93" />
            </Array>
          </mxGeometry>
        </mxCell>
        <mxCell id="-FXv5omy3MzeQEBANu6x-27" value="" style="endArrow=ERone;html=1;rounded=0;exitX=1.018;exitY=0.169;exitDx=0;exitDy=0;exitPerimeter=0;entryX=-0.005;entryY=0.866;entryDx=0;entryDy=0;entryPerimeter=0;edgeStyle=orthogonalEdgeStyle;startArrow=ERone;startFill=0;endFill=0;" edge="1" parent="1" source="-FXv5omy3MzeQEBANu6x-8" target="-FXv5omy3MzeQEBANu6x-6">
          <mxGeometry relative="1" as="geometry">
            <mxPoint x="390" y="380" as="sourcePoint" />
            <mxPoint x="550" y="380" as="targetPoint" />
          </mxGeometry>
        </mxCell>
        <mxCell id="-FXv5omy3MzeQEBANu6x-28" value="" style="endArrow=ERmany;html=1;rounded=0;entryX=0;entryY=0.75;entryDx=0;entryDy=0;exitX=-0.017;exitY=0.158;exitDx=0;exitDy=0;exitPerimeter=0;edgeStyle=orthogonalEdgeStyle;startArrow=ERone;startFill=0;endFill=0;" edge="1" parent="1" source="-FXv5omy3MzeQEBANu6x-10" target="-FXv5omy3MzeQEBANu6x-14">
          <mxGeometry relative="1" as="geometry">
            <mxPoint x="-180" y="140" as="sourcePoint" />
            <mxPoint x="-20" y="140" as="targetPoint" />
            <Array as="points">
              <mxPoint x="-180" y="244" />
              <mxPoint x="-180" y="150" />
              <mxPoint x="75" y="150" />
              <mxPoint x="75" y="93" />
            </Array>
          </mxGeometry>
        </mxCell>
        <mxCell id="-FXv5omy3MzeQEBANu6x-29" value="" style="endArrow=ERmandOne;html=1;rounded=0;exitX=1;exitY=0.25;exitDx=0;exitDy=0;entryX=-0.015;entryY=0.391;entryDx=0;entryDy=0;entryPerimeter=0;edgeStyle=orthogonalEdgeStyle;startArrow=ERone;startFill=0;endFill=0;" edge="1" parent="1" source="-FXv5omy3MzeQEBANu6x-14" target="-FXv5omy3MzeQEBANu6x-16">
          <mxGeometry relative="1" as="geometry">
            <mxPoint x="240" y="150" as="sourcePoint" />
            <mxPoint x="400" y="150" as="targetPoint" />
          </mxGeometry>
        </mxCell>
        <mxCell id="-FXv5omy3MzeQEBANu6x-30" value="" style="endArrow=ERone;html=1;rounded=0;exitX=1.015;exitY=0.643;exitDx=0;exitDy=0;exitPerimeter=0;entryX=0.002;entryY=0.134;entryDx=0;entryDy=0;entryPerimeter=0;edgeStyle=orthogonalEdgeStyle;startArrow=ERone;startFill=0;endFill=0;" edge="1" parent="1" source="-FXv5omy3MzeQEBANu6x-14" target="-FXv5omy3MzeQEBANu6x-18">
          <mxGeometry relative="1" as="geometry">
            <mxPoint x="290" y="140" as="sourcePoint" />
            <mxPoint x="450" y="140" as="targetPoint" />
            <Array as="points">
              <mxPoint x="300" y="85" />
              <mxPoint x="300" y="130" />
              <mxPoint x="790" y="129" />
            </Array>
          </mxGeometry>
        </mxCell>
        <mxCell id="-FXv5omy3MzeQEBANu6x-31" value="" style="endArrow=ERone;html=1;rounded=0;edgeStyle=orthogonalEdgeStyle;startArrow=ERone;startFill=0;endFill=0;exitX=1.017;exitY=0.851;exitDx=0;exitDy=0;exitPerimeter=0;" edge="1" parent="1" source="-FXv5omy3MzeQEBANu6x-10">
          <mxGeometry relative="1" as="geometry">
            <mxPoint x="40" y="306" as="sourcePoint" />
            <mxPoint x="360" y="240" as="targetPoint" />
            <Array as="points">
              <mxPoint x="50" y="307" />
              <mxPoint x="50" y="320" />
              <mxPoint x="340" y="320" />
              <mxPoint x="340" y="240" />
            </Array>
          </mxGeometry>
        </mxCell>
        <mxCell id="-FXv5omy3MzeQEBANu6x-32" value="" style="endArrow=ERzeroToMany;html=1;rounded=0;exitX=1.03;exitY=0.157;exitDx=0;exitDy=0;exitPerimeter=0;edgeStyle=orthogonalEdgeStyle;startArrow=ERone;startFill=0;endFill=0;" edge="1" parent="1">
          <mxGeometry relative="1" as="geometry">
            <mxPoint x="760.0000000000002" y="240.79000000000002" as="sourcePoint" />
            <mxPoint x="900" y="188" as="targetPoint" />
            <Array as="points">
              <mxPoint x="785" y="241" />
              <mxPoint x="785" y="255" />
              <mxPoint x="900" y="255" />
            </Array>
          </mxGeometry>
        </mxCell>
        <mxCell id="-FXv5omy3MzeQEBANu6x-33" value="" style="endArrow=ERone;html=1;rounded=0;exitX=0.46;exitY=1.009;exitDx=0;exitDy=0;exitPerimeter=0;startArrow=ERzeroToMany;startFill=0;endFill=0;" edge="1" parent="1" source="-FXv5omy3MzeQEBANu6x-14" target="-FXv5omy3MzeQEBANu6x-11">
          <mxGeometry relative="1" as="geometry">
            <mxPoint x="230" y="210" as="sourcePoint" />
            <mxPoint x="390" y="210" as="targetPoint" />
          </mxGeometry>
        </mxCell>
        <mxCell id="-FXv5omy3MzeQEBANu6x-34" value="&lt;span style=&quot;text-align: center;&quot;&gt;add info&lt;/span&gt;" style="text;strokeColor=none;fillColor=none;spacingLeft=4;spacingRight=4;overflow=hidden;rotatable=0;points=[[0,0.5],[1,0.5]];portConstraint=eastwest;fontSize=12;whiteSpace=wrap;html=1;" vertex="1" parent="1">
          <mxGeometry x="-130" y="120" width="60" height="30" as="geometry" />
        </mxCell>
        <mxCell id="-FXv5omy3MzeQEBANu6x-35" value="&lt;span style=&quot;text-align: center;&quot;&gt;add info&lt;/span&gt;" style="text;strokeColor=none;fillColor=none;spacingLeft=4;spacingRight=4;overflow=hidden;rotatable=0;points=[[0,0.5],[1,0.5]];portConstraint=eastwest;fontSize=12;whiteSpace=wrap;html=1;" vertex="1" parent="1">
          <mxGeometry x="-130" y="120" width="60" height="30" as="geometry" />
        </mxCell>
        <mxCell id="-FXv5omy3MzeQEBANu6x-36" value="&lt;span style=&quot;text-align: center;&quot;&gt;save&lt;/span&gt;" style="text;strokeColor=none;fillColor=none;spacingLeft=4;spacingRight=4;overflow=hidden;rotatable=0;points=[[0,0.5],[1,0.5]];portConstraint=eastwest;fontSize=12;whiteSpace=wrap;html=1;" vertex="1" parent="1">
          <mxGeometry x="300" y="20" width="60" height="30" as="geometry" />
        </mxCell>
        <mxCell id="-FXv5omy3MzeQEBANu6x-37" value="&lt;span style=&quot;text-align: center;&quot;&gt;Insert&lt;/span&gt;" style="text;strokeColor=none;fillColor=none;spacingLeft=4;spacingRight=4;overflow=hidden;rotatable=0;points=[[0,0.5],[1,0.5]];portConstraint=eastwest;fontSize=12;whiteSpace=wrap;html=1;" vertex="1" parent="1">
          <mxGeometry x="120" y="330" width="60" height="30" as="geometry" />
        </mxCell>
        <mxCell id="-FXv5omy3MzeQEBANu6x-38" value="&lt;span style=&quot;text-align: center;&quot;&gt;guide&lt;/span&gt;" style="text;strokeColor=none;fillColor=none;spacingLeft=4;spacingRight=4;overflow=hidden;rotatable=0;points=[[0,0.5],[1,0.5]];portConstraint=eastwest;fontSize=12;whiteSpace=wrap;html=1;" vertex="1" parent="1">
          <mxGeometry x="200" y="130" width="60" height="30" as="geometry" />
        </mxCell>
        <mxCell id="-FXv5omy3MzeQEBANu6x-39" value="&lt;span style=&quot;text-align: center;&quot;&gt;make&lt;/span&gt;" style="text;strokeColor=none;fillColor=none;spacingLeft=4;spacingRight=4;overflow=hidden;rotatable=0;points=[[0,0.5],[1,0.5]];portConstraint=eastwest;fontSize=12;whiteSpace=wrap;html=1;" vertex="1" parent="1">
          <mxGeometry x="540" y="370" width="60" height="30" as="geometry" />
        </mxCell>
        <mxCell id="-FXv5omy3MzeQEBANu6x-40" value="&lt;span style=&quot;text-align: center;&quot;&gt;add info&lt;/span&gt;" style="text;strokeColor=none;fillColor=none;spacingLeft=4;spacingRight=4;overflow=hidden;rotatable=0;points=[[0,0.5],[1,0.5]];portConstraint=eastwest;fontSize=12;whiteSpace=wrap;html=1;" vertex="1" parent="1">
          <mxGeometry x="210" y="390" width="60" height="30" as="geometry" />
        </mxCell>
        <mxCell id="-FXv5omy3MzeQEBANu6x-41" value="&lt;span style=&quot;text-align: center;&quot;&gt;has&lt;/span&gt;" style="text;strokeColor=none;fillColor=none;spacingLeft=4;spacingRight=4;overflow=hidden;rotatable=0;points=[[0,0.5],[1,0.5]];portConstraint=eastwest;fontSize=12;whiteSpace=wrap;html=1;" vertex="1" parent="1">
          <mxGeometry x="530" y="210" width="60" height="30" as="geometry" />
        </mxCell>
        <mxCell id="-FXv5omy3MzeQEBANu6x-42" value="&lt;span style=&quot;text-align: center;&quot;&gt;promote&lt;/span&gt;" style="text;strokeColor=none;fillColor=none;spacingLeft=4;spacingRight=4;overflow=hidden;rotatable=0;points=[[0,0.5],[1,0.5]];portConstraint=eastwest;fontSize=12;whiteSpace=wrap;html=1;" vertex="1" parent="1">
          <mxGeometry x="270" y="225" width="60" height="30" as="geometry" />
        </mxCell>
        <mxCell id="-FXv5omy3MzeQEBANu6x-43" value="&lt;span style=&quot;text-align: center;&quot;&gt;make&lt;/span&gt;" style="text;strokeColor=none;fillColor=none;spacingLeft=4;spacingRight=4;overflow=hidden;rotatable=0;points=[[0,0.5],[1,0.5]];portConstraint=eastwest;fontSize=12;whiteSpace=wrap;html=1;" vertex="1" parent="1">
          <mxGeometry x="610" y="100" width="60" height="30" as="geometry" />
        </mxCell>
        <mxCell id="-FXv5omy3MzeQEBANu6x-44" value="&lt;span style=&quot;text-align: center;&quot;&gt;take&lt;/span&gt;" style="text;strokeColor=none;fillColor=none;spacingLeft=4;spacingRight=4;overflow=hidden;rotatable=0;points=[[0,0.5],[1,0.5]];portConstraint=eastwest;fontSize=12;whiteSpace=wrap;html=1;" vertex="1" parent="1">
          <mxGeometry x="790" y="320" width="60" height="30" as="geometry" />
        </mxCell>
        <mxCell id="-FXv5omy3MzeQEBANu6x-45" value="&lt;span style=&quot;text-align: center;&quot;&gt;has&lt;/span&gt;" style="text;strokeColor=none;fillColor=none;spacingLeft=4;spacingRight=4;overflow=hidden;rotatable=0;points=[[0,0.5],[1,0.5]];portConstraint=eastwest;fontSize=12;whiteSpace=wrap;html=1;" vertex="1" parent="1">
          <mxGeometry x="820" y="400" width="60" height="30" as="geometry" />
        </mxCell>
        <mxCell id="-FXv5omy3MzeQEBANu6x-46" value="&lt;span style=&quot;text-align: center;&quot;&gt;make&lt;/span&gt;" style="text;strokeColor=none;fillColor=none;spacingLeft=4;spacingRight=4;overflow=hidden;rotatable=0;points=[[0,0.5],[1,0.5]];portConstraint=eastwest;fontSize=12;whiteSpace=wrap;html=1;" vertex="1" parent="1">
          <mxGeometry x="820" y="225" width="60" height="30" as="geometry" />
        </mxCell>
        <mxCell id="-FXv5omy3MzeQEBANu6x-47" value="&lt;span style=&quot;text-align: center;&quot;&gt;check&lt;/span&gt;" style="text;strokeColor=none;fillColor=none;spacingLeft=4;spacingRight=4;overflow=hidden;rotatable=0;points=[[0,0.5],[1,0.5]];portConstraint=eastwest;fontSize=12;whiteSpace=wrap;html=1;" vertex="1" parent="1">
          <mxGeometry x="510" y="150" width="60" height="30" as="geometry" />
        </mxCell>
      </root>
    </mxGraphModel>
  </diagram>
</mxfile>
